# xmcd CD database file
#
# Track frame offsets:
#	150
#	10869
#	24369
#	44914
#	60589
#	74769
#	90357
#	104909
#	118322
#	134312
#	152727
#	163767
#	184135
#	194837
#
# Disc length: 2860 seconds
#
# Revision: 0
# Processed by: cddbd v1.4PL0 Copyright (c) Steve Scherf et al.
# Submitted via: CDex 1.51
#
DISCID=d20b2a0e
DTITLE=Louis Armstrong - Special Collection
DYEAR=1900
DGENRE=Blues
TTITLE0=What a Wonderful world
TTITLE1=Moon River
TTITLE2=On the sunny side of the street
TTITLE3=I Get Ideas
TTITLE4=Kiss of fire
TTITLE5=La Vie en rose
TTITLE6=Only You
TTITLE7=Sincerely
TTITLE8=Memories of you
TTITLE9=When you're smiling
TTITLE10=Hello dolly!
TTITLE11=Kiss to built a dream on
TTITLE12=it's been a long, long time
TTITLE13=When the saints go marching in
EXTD=
EXTT0=
EXTT1=
EXTT2=
EXTT3=
EXTT4=
EXTT5=
EXTT6=
EXTT7=
EXTT8=
EXTT9=
EXTT10=
EXTT11=
EXTT12=
EXTT13=
PLAYORDER=
